<svg width="15" height="17" viewBox="0 0 15 17" fill="none" xmlns="http://www.w3.org/2000/svg">
<path d="M1.56801 5.50684C1.28293 5.50684 1.04105 5.60898 0.842219 5.81327C0.64339 6.01756 0.543945 6.2627 0.543945 6.54882V10.9418C0.543945 11.2351 0.64336 11.4834 0.842219 11.6877C1.04105 11.892 1.28293 11.9942 1.56801 11.9942C1.85288 11.9942 2.09329 11.892 2.28904 11.6877C2.4844 11.4834 2.58235 11.2351 2.58235 10.9418V6.54882C2.58235 6.26267 2.48293 6.01756 2.28407 5.81327C2.08521 5.60898 1.84648 5.50684 1.56801 5.50684Z" fill="#525252"/>
<path d="M9.80117 1.56321L10.5072 0.225091C10.5535 0.136502 10.537 0.0685694 10.4575 0.0208015C10.3713 -0.0203884 10.305 0.000483224 10.2587 0.0819408L9.54286 1.43075C8.91296 1.14461 8.24674 1.00127 7.54419 1.00127C6.8415 1.00127 6.17522 1.14464 5.54555 1.43075L4.82967 0.0819408C4.78315 0.000483224 4.71688 -0.0202039 4.63084 0.0208015C4.5512 0.0687846 4.53471 0.136502 4.58123 0.225091L5.28725 1.56321C4.57136 1.93831 4.0012 2.46072 3.57698 3.13156C3.15275 3.80277 2.94055 4.53625 2.94055 5.33331H12.1378C12.1378 4.53644 11.9256 3.80292 11.5014 3.13156C11.0772 2.46072 10.5103 1.93831 9.80117 1.56321ZM5.71949 3.50952C5.64314 3.58815 5.55195 3.62728 5.44596 3.62728C5.33975 3.62728 5.25042 3.58815 5.17754 3.50952C5.10466 3.43126 5.06823 3.33794 5.06823 3.22866C5.06823 3.11975 5.10466 3.02625 5.17754 2.9478C5.25042 2.86954 5.33996 2.83041 5.44596 2.83041C5.55195 2.83041 5.64314 2.86954 5.71949 2.9478C5.79566 3.02643 5.83392 3.11975 5.83392 3.22866C5.83371 3.33775 5.79548 3.43126 5.71949 3.50952ZM9.91046 3.50952C9.83743 3.58815 9.74789 3.62728 9.64207 3.62728C9.53583 3.62728 9.44468 3.58815 9.36848 3.50952C9.29216 3.43126 9.25407 3.33794 9.25407 3.22866C9.25407 3.11975 9.29216 3.02625 9.36848 2.9478C9.44468 2.86954 9.53583 2.83041 9.64207 2.83041C9.74807 2.83041 9.8374 2.86954 9.91046 2.9478C9.98339 3.02643 10.0198 3.11975 10.0198 3.22866C10.0198 3.33775 9.98336 3.43126 9.91046 3.50952Z" fill="#525252"/>
<path d="M2.97998 12.5048C2.97998 12.8184 3.08598 13.0839 3.298 13.3017C3.5102 13.5196 3.76856 13.6285 4.07357 13.6285H4.80941L4.81949 15.9478C4.81949 16.2407 4.91891 16.4894 5.11774 16.6937C5.31656 16.8981 5.55533 17.0002 5.83362 17.0002C6.11852 17.0002 6.36055 16.8981 6.55941 16.6937C6.75827 16.4894 6.85768 16.2407 6.85768 15.9478V13.6287H8.2298V15.9478C8.2298 16.2407 8.32919 16.4894 8.52804 16.6937C8.7269 16.8981 8.96872 17.0002 9.25383 17.0002C9.53873 17.0002 9.78076 16.8981 9.97962 16.6937C10.1785 16.4894 10.2779 16.2407 10.2779 15.9478V13.6287H11.0236C11.3219 13.6287 11.5769 13.5197 11.7893 13.3019C12.0013 13.0841 12.1074 12.8186 12.1074 12.505V5.70068H2.97998V12.5048Z" fill="#525252"/>
<path d="M13.5199 5.50684C13.2414 5.50684 13.0028 5.60747 12.804 5.8082C12.6052 6.00929 12.5057 6.25631 12.5057 6.54882V10.9418C12.5057 11.2351 12.6051 11.4834 12.804 11.6877C13.0028 11.892 13.2416 11.9942 13.5199 11.9942C13.8048 11.9942 14.0468 11.892 14.2457 11.6877C14.4445 11.4834 14.5439 11.2351 14.5439 10.9418V6.54882C14.5439 6.25628 14.4445 6.00929 14.2457 5.8082C14.0468 5.60747 13.8048 5.50684 13.5199 5.50684Z" fill="#525252"/>
</svg>
