<svg width="34" height="40" viewBox="0 0 34 40" fill="none" xmlns="http://www.w3.org/2000/svg">
<path d="M2.55288 12.9565C1.86368 12.9565 1.27892 13.1969 0.798243 13.6776C0.317562 14.1582 0.0771484 14.7351 0.0771484 15.4083V25.7447C0.0771484 26.4348 0.317489 27.0191 0.798243 27.4998C1.27892 27.9805 1.86368 28.2209 2.55288 28.2209C3.24158 28.2209 3.82279 27.9806 4.29602 27.4998C4.76832 27.0191 5.00511 26.4348 5.00511 25.7447V15.4083C5.00511 14.735 4.76477 14.1582 4.28402 13.6776C3.80326 13.1969 3.2261 12.9565 2.55288 12.9565Z" fill="#DDDDDD"/>
<path d="M22.4571 3.67781L24.1638 0.529296C24.2759 0.320851 24.236 0.16101 24.0439 0.0486145C23.8354 -0.048303 23.6752 0.000806691 23.5632 0.192472L21.8326 3.36616C20.3098 2.69287 18.6991 2.35561 17.0007 2.35561C15.3019 2.35561 13.6911 2.69294 12.1688 3.36616L10.4381 0.192472C10.3257 0.000806691 10.1655 -0.047869 9.95747 0.0486145C9.76493 0.161516 9.72508 0.320851 9.83755 0.529296L11.5444 3.67781C9.81368 4.56041 8.43528 5.7896 7.40969 7.36805C6.3841 8.94737 5.87109 10.6732 5.87109 12.5487H28.1061C28.1061 10.6737 27.593 8.94773 26.5675 7.36805C25.5419 5.7896 24.1714 4.56041 22.4571 3.67781ZM12.5894 8.25738C12.4048 8.44239 12.1843 8.53446 11.9281 8.53446C11.6713 8.53446 11.4553 8.44239 11.2792 8.25738C11.103 8.07324 11.0149 7.85365 11.0149 7.59653C11.0149 7.34028 11.103 7.12026 11.2792 6.93568C11.4553 6.75154 11.6718 6.65947 11.9281 6.65947C12.1843 6.65947 12.4048 6.75154 12.5894 6.93568C12.7735 7.1207 12.866 7.34028 12.866 7.59653C12.8655 7.85322 12.7731 8.07324 12.5894 8.25738ZM22.7213 8.25738C22.5447 8.44239 22.3283 8.53446 22.0724 8.53446C21.8156 8.53446 21.5952 8.44239 21.411 8.25738C21.2265 8.07324 21.1344 7.85365 21.1344 7.59653C21.1344 7.34028 21.2265 7.12026 21.411 6.93568C21.5952 6.75154 21.8156 6.65947 22.0724 6.65947C22.3287 6.65947 22.5447 6.75154 22.7213 6.93568C22.8976 7.1207 22.9856 7.34028 22.9856 7.59653C22.9856 7.85322 22.8975 8.07324 22.7213 8.25738Z" fill="#DDDDDD"/>
<path d="M5.96655 29.4227C5.96655 30.1606 6.22281 30.7852 6.73538 31.2978C7.24839 31.8104 7.87301 32.0666 8.61037 32.0666H10.3893L10.4137 37.5239C10.4137 38.2131 10.654 38.7982 11.1347 39.279C11.6154 39.7598 12.1926 40.0001 12.8654 40.0001C13.5542 40.0001 14.1393 39.7598 14.6201 39.279C15.1008 38.7982 15.3411 38.2131 15.3411 37.5239V32.0671H18.6583V37.5239C18.6583 38.2131 18.8986 38.7982 19.3793 39.279C19.8601 39.7598 20.4447 40.0001 21.134 40.0001C21.8228 40.0001 22.4079 39.7598 22.8886 39.279C23.3694 38.7982 23.6097 38.2131 23.6097 37.5239V32.0671H25.4126C26.1336 32.0671 26.7502 31.8108 27.2637 31.2982C27.7762 30.7856 28.0326 30.161 28.0326 29.4232V13.413H5.96655V29.4227Z" fill="#DDDDDD"/>
<path d="M31.4474 12.9565C30.7741 12.9565 30.1974 13.1933 29.7166 13.6656C29.2359 14.1388 28.9956 14.72 28.9956 15.4083V25.7447C28.9956 26.4348 29.2359 27.0191 29.7166 27.4998C30.1974 27.9806 30.7745 28.2209 31.4474 28.2209C32.1362 28.2209 32.7213 27.9806 33.202 27.4998C33.6828 27.0191 33.9231 26.4348 33.9231 25.7447V15.4083C33.9231 14.7199 33.6828 14.1388 33.202 13.6656C32.7213 13.1933 32.1362 12.9565 31.4474 12.9565Z" fill="#DDDDDD"/>
</svg>
