<svg width="40" height="40" viewBox="0 0 40 40" fill="none" xmlns="http://www.w3.org/2000/svg">
<path d="M14.473 40C8.51983 39.9657 3.59546 27.8132 3.59546 21.6242C3.59546 11.5145 11.1794 9.30124 14.1023 9.30124C15.4194 9.30124 16.8259 9.8185 18.0665 10.2762C18.934 10.5955 19.8312 10.9251 20.3301 10.9251C20.6288 10.9251 21.3326 10.6448 21.9541 10.3987C23.2793 9.87116 24.9283 9.21545 26.8487 9.21545C26.8521 9.21545 26.8567 9.21545 26.8601 9.21545C28.294 9.21545 32.6416 9.53014 35.2555 13.4555L35.8677 14.3755L34.9866 15.0405C33.7277 15.9903 31.4308 17.723 31.4308 21.1551C31.4308 25.22 34.0321 26.7833 35.2818 27.5351C35.8334 27.867 36.4044 28.2092 36.4044 28.9576C36.4044 29.4463 32.5043 39.9394 26.8406 39.9394C25.4548 39.9394 24.4751 39.5228 23.6111 39.1555C22.7368 38.7835 21.9826 38.4631 20.7363 38.4631C20.1046 38.4631 19.3058 38.7618 18.4601 39.0788C17.3044 39.5101 15.9962 40 14.5119 40H14.473Z" fill="#DDDDDD"/>
<path d="M27.4486 0C27.5961 5.31844 23.7926 9.00813 19.9935 8.77672C19.3675 4.53242 23.7921 0 27.4486 0Z" fill="#DDDDDD"/>
</svg>
