<svg width="15" height="17" viewBox="0 0 15 17" fill="none" xmlns="http://www.w3.org/2000/svg">
<path d="M4.6636 16.9999C2.1233 16.9854 0.0220032 11.8205 0.0220032 9.19022C0.0220032 4.89361 3.25818 3.95296 4.50538 3.95296C5.06744 3.95296 5.66761 4.1728 6.19697 4.36734C6.56714 4.50304 6.94998 4.64312 7.1629 4.64312C7.29035 4.64312 7.59068 4.52396 7.85584 4.4194C8.42134 4.19518 9.12501 3.9165 9.94443 3.9165C9.9459 3.9165 9.94787 3.9165 9.9493 3.9165C10.5612 3.9165 12.4164 4.05025 13.5317 5.7185L13.793 6.10954L13.417 6.39213C12.8798 6.79581 11.8997 7.53219 11.8997 8.99084C11.8997 10.7184 13.0097 11.3828 13.543 11.7024C13.7783 11.8434 14.022 11.9888 14.022 12.3069C14.022 12.5146 12.3578 16.9742 9.941 16.9742C9.34964 16.9742 8.93162 16.7971 8.56292 16.641C8.18984 16.4829 7.86801 16.3468 7.33622 16.3468C7.06666 16.3468 6.72579 16.4737 6.36492 16.6084C5.87176 16.7917 5.31357 16.9999 4.6802 16.9999H4.6636Z" fill="#525252"/>
<path d="M10.2005 0C10.2634 2.26034 8.6404 3.82845 7.01929 3.73011C6.75216 1.92628 8.6402 0 10.2005 0Z" fill="#525252"/>
</svg>
