<svg width="132" height="30" viewBox="0 0 132 30" fill="none" xmlns="http://www.w3.org/2000/svg">
<path d="M67.9566 14.5707C66.8666 14.5707 66.081 14.9811 65.2843 15.3992V24.8604C66.0473 24.9439 66.4848 24.9439 67.2088 24.9439C69.8248 24.9439 70.1835 23.5681 70.1835 21.6473V17.1285C70.1835 15.71 69.7735 14.5707 67.9566 14.5707ZM50.5824 14.0543C48.7672 14.0543 48.353 15.1985 48.353 16.6157V17.4119H52.8093V16.6157C52.8093 15.1985 52.3951 14.0543 50.5824 14.0543ZM16.9251 23.9021C16.9251 25.0231 17.3858 25.6055 18.4024 25.6055C19.493 25.6055 20.1387 25.1971 20.9348 24.7776V22.5333H18.5503C17.4212 22.5333 16.9251 22.7747 16.9251 23.9021ZM84.8573 14.5707C83.0391 14.5707 82.4092 15.71 82.4092 17.1285V22.3053C82.4092 23.7274 83.0391 24.8702 84.8573 24.8702C86.6706 24.8702 87.3053 23.7274 87.3053 22.3053V17.1285C87.3047 15.71 86.67 14.5707 84.8573 14.5707ZM8.01505 29.7067H2.67046V14.852H0V9.7334H2.67107V6.65919C2.67107 2.48281 4.17828 0 8.46227 0H12.029V5.11997H9.79964C8.13174 5.11997 8.02177 5.83555 8.02177 7.1706L8.01505 9.73273H12.0534L11.5812 14.8513H8.01505V29.7067ZM26.2806 29.7453H21.8262L21.6337 28.4517C19.5999 29.7453 17.7847 29.9551 16.5873 29.9551C13.3205 29.9551 11.5818 27.4491 11.5818 23.9835C11.5818 19.8948 13.6107 18.4355 17.2404 18.4355H20.9348V17.5515C20.9348 15.4644 20.7265 14.852 17.9314 14.852H13.3615L13.8081 9.7334H18.8032C24.9359 9.7334 26.2806 11.9581 26.2806 17.5929V29.7453ZM41.4279 15.2273C38.656 14.6815 37.86 14.5615 36.5262 14.5615C34.1307 14.5615 33.4067 15.1684 33.4067 17.5045V21.9237C33.4067 24.2599 34.1307 24.8695 36.5262 24.8695C37.86 24.8695 38.656 24.7475 41.4279 24.1995V29.1925C39 29.8176 37.4182 29.9817 36.0815 29.9817C30.3434 29.9817 28.0628 26.5168 28.0628 21.5111V17.9255C28.0628 12.9157 30.3434 9.4444 36.0815 9.4444C37.4182 9.4444 39 9.6092 41.4279 10.2371V15.2273ZM58.1533 21.5111H48.3524V21.9237C48.3524 24.2599 49.077 24.8695 51.4719 24.8695C53.6249 24.8695 54.9391 24.7475 57.706 24.1995V29.1925C55.0374 29.8176 53.6469 29.9817 51.029 29.9817C45.2903 29.9817 43.0084 26.5168 43.0084 21.5111V17.4113C43.0084 13.0314 44.7014 9.4444 50.5818 9.4444C56.4622 9.4444 58.1533 12.9901 58.1533 17.4113V21.5111ZM75.5268 21.6059C75.5268 26.4438 74.3227 29.9727 67.0279 29.9727C64.3935 29.9727 62.8484 29.7067 59.9409 29.1932V1.53781L65.2837 0.514243V10.188C66.4384 9.69553 67.9327 9.44507 69.2927 9.44507C74.6361 9.44507 75.5262 12.1959 75.5262 16.6164V21.6059H75.5268ZM92.6536 21.7111C92.6536 25.8847 91.1531 29.9327 84.875 29.9327C78.5938 29.9327 77.0652 25.8847 77.0652 21.7111V17.6813C77.0652 13.5057 78.5938 9.457 84.875 9.457C91.1531 9.457 92.6536 13.5057 92.6536 17.6813V21.7111ZM109.769 21.7111C109.769 25.8847 108.266 29.9327 101.99 29.9327C95.7084 29.9327 94.1797 25.8847 94.1797 21.7111V17.6813C94.1797 13.5057 95.7084 9.457 101.99 9.457C108.266 9.457 109.769 13.5057 109.769 17.6813V21.7111ZM127.333 29.7067H121.542L116.644 20.3178V29.7067H111.299V1.53711L116.644 0.51354V18.6481L121.542 9.7334H127.333L121.986 19.4619L127.333 29.7067ZM101.971 14.5707C100.156 14.5707 99.5262 15.71 99.5262 17.1285V22.3053C99.5262 23.7274 100.156 24.8702 101.971 24.8702C103.784 24.8702 104.425 23.7274 104.425 22.3053V17.1285C104.425 15.71 103.784 14.5707 101.971 14.5707ZM130.383 26.2032C131.283 26.2032 132 27.0457 132 28.0981C132 29.1665 131.283 30 130.377 30C129.475 30 128.744 29.1665 128.744 28.0981C128.744 27.0457 129.475 26.2032 130.377 26.2032H130.383ZM130.377 26.4978C129.652 26.4978 129.058 27.2141 129.058 28.0981C129.058 28.9982 129.652 29.7053 130.383 29.7053C131.115 29.7137 131.7 28.9982 131.7 28.1065C131.7 27.2148 131.115 26.4978 130.383 26.4978H130.377ZM130.069 29.2009H129.776V27.0864C129.93 27.0619 130.077 27.0373 130.297 27.0373C130.575 27.0373 130.757 27.1047 130.869 27.1966C130.977 27.2899 131.035 27.4323 131.035 27.6337C131.035 27.9129 130.875 28.0805 130.678 28.1486V28.1647C130.839 28.1991 130.948 28.3661 130.985 28.6769C131.028 29.0059 131.073 29.1315 131.101 29.2002H130.794C130.751 29.1315 130.706 28.9385 130.669 28.66C130.627 28.3913 130.508 28.2903 130.273 28.2903H130.07V29.2009H130.069ZM130.069 28.0307H130.282C130.523 28.0307 130.727 27.929 130.727 27.6673C130.727 27.4821 130.611 27.2976 130.282 27.2976C130.186 27.2976 130.119 27.306 130.069 27.3137V28.0307Z" fill="#E0E0E0"/>
</svg>
