<svg width="132" height="45" viewBox="0 0 132 45" fill="none" xmlns="http://www.w3.org/2000/svg">
<path d="M20.412 21.866H26.0886V29.7994C24.3174 30.3656 22.081 30.6762 19.7562 30.6762C10.3346 30.6762 4.79713 22.6481 4.79713 14.8076C4.79713 7.11779 9.80585 1.72383 16.7937 1.72383C21.2155 1.72383 23.7884 3.21438 26.0902 5.29068V7.87904L30.4062 3.5844C27.6763 1.7466 23.7233 0 18.0731 0C5.66952 0 0 8.82968 0 16.086C0 26.4147 7.56059 32.6368 17.0617 32.6368C21.6686 32.6368 25.759 31.937 30.4839 30.6288V22.4324C30.4839 22.0133 30.669 21.7257 30.9457 21.4732L32.4366 19.9896H22.3118L20.412 21.866V21.866Z" fill="url(#paint0_linear)"/>
<path d="M45.8412 11.0847C38.7019 11.0847 34.2783 16.2756 34.2783 21.7855C34.2783 26.5414 37.842 32.1879 45.0623 32.1879C52.0078 32.1879 56.2692 26.9868 56.2692 21.3805C56.2692 16.1582 52.1047 11.0866 45.8412 11.0866V11.0847V11.0847ZM44.6567 12.5981C49.6902 12.5981 51.9318 19.1234 51.9318 23.7775C51.9318 30.6991 46.7135 30.8358 46.0896 30.8358C43.7016 30.8358 42.0325 29.3998 40.7832 27.5162C39.6835 25.7803 38.6084 22.5552 38.6084 19.404C38.6084 16.265 39.641 14.7323 41.2661 13.6047C42.5949 12.7595 43.8392 12.5981 44.655 12.5981H44.6567Z" fill="url(#paint1_linear)"/>
<path d="M92.5109 11.083C86.2754 11.083 82.9023 15.0112 82.9023 19.397C82.9023 22.7359 85.3061 26.5027 90.2654 26.5027H91.5201C91.5201 26.5027 91.1784 27.3286 91.1766 28.1265C91.1766 29.3034 91.6013 29.9643 92.5035 30.9814C83.9701 31.4987 80.5405 34.9236 80.5405 38.6045C80.5405 41.8278 83.6425 45.0001 90.1613 45.0001C97.8787 45.0001 101.876 40.7368 101.876 36.5529C101.876 33.6033 100.399 31.9864 96.6592 29.1982C95.5595 28.3476 95.3462 27.806 95.3462 27.1694C95.3462 26.2575 95.8943 25.6541 96.0952 25.4263C96.4494 25.0545 97.0627 24.6301 97.2919 24.4267C98.5484 23.3675 100.323 21.7999 100.323 18.6713C100.323 16.5249 99.4259 14.6783 97.3817 12.9492H99.8773L101.752 11.0834H92.5109V11.083ZM90.7909 12.4789C91.9223 12.4789 92.8668 12.877 93.8643 13.703C94.9709 14.6955 96.7388 17.3628 96.7388 20.6631C96.7388 24.2247 93.9578 25.1997 92.4527 25.1997C91.7161 25.1997 90.8333 24.9946 90.0859 24.486C88.4258 23.4147 86.7778 20.5631 86.7778 17.1698C86.7778 14.108 88.6106 12.4789 90.7909 12.4789ZM93.2599 32.3335C93.7356 32.3335 94.0777 32.3722 94.0777 32.3722C94.0777 32.3722 95.2003 33.1701 95.9845 33.7662C97.8104 35.2024 98.9487 36.3002 98.9487 38.2557C98.9487 40.944 96.4425 43.0518 92.3838 43.0518C87.9287 43.0518 84.5237 40.9878 84.5237 37.6175C84.5237 34.8255 86.857 32.4228 93.2599 32.3335Z" fill="url(#paint2_linear)"/>
<path d="M103.103 31.5723H111.663L112.967 30.2748L110.512 29.9697C109.851 29.889 109.458 29.3208 109.458 28.7702V3.04273C109.458 2.53593 109.694 2.27639 109.867 2.11137L111.411 0.575195H104.111L102.211 2.46561H105.048V29.1155C105.048 29.4943 104.929 29.752 104.671 30.0168L103.103 31.5723V31.5723Z" fill="url(#paint3_linear)"/>
<path d="M123.261 11.0847C118.481 11.0847 113.404 14.7095 113.404 21.2172C113.404 26.5919 117.047 32.1879 123.853 32.1879C125.55 32.1879 126.948 31.9706 128.257 31.3726C129.662 30.7291 131.013 29.6839 132 28.3704C130.138 29.3051 128.618 29.9189 126.6 29.9189C122.765 29.9189 119.068 27.1657 117.774 22.1047L131.322 16.6562C130.539 13.8802 128.333 11.0847 123.263 11.0847H123.261ZM122.376 12.5735C124.94 12.5735 126.794 14.6727 126.794 16.3158C126.794 16.8471 126.459 17.1277 125.797 17.3873L117.469 20.7384C117.469 20.7384 117.244 19.6951 117.244 18.5675C117.244 13.8379 120.681 12.5735 122.376 12.5735V12.5735Z" fill="url(#paint4_linear)"/>
<path d="M70.0668 11.0847C62.9274 11.0847 58.5039 16.2756 58.5039 21.7855C58.5039 26.5414 62.0676 32.1879 69.2879 32.1879C76.2334 32.1879 80.4948 26.9868 80.4948 21.3805C80.4948 16.1582 76.3303 11.0866 70.0668 11.0866V11.0847V11.0847ZM68.8824 12.5981C73.9159 12.5981 76.1574 19.1234 76.1574 23.7775C76.1574 30.6991 70.939 30.8358 70.3152 30.8358C67.9271 30.8358 66.2582 29.3998 65.0089 27.5162C63.9091 25.7803 62.834 22.5552 62.834 19.404C62.834 16.265 63.8666 14.7323 65.4917 13.6047C66.8205 12.7595 68.0648 12.5981 68.8806 12.5981H68.8824Z" fill="url(#paint5_linear)"/>
<defs>
<linearGradient id="paint0_linear" x1="16.1377" y1="-0.0923857" x2="16.1377" y2="32.635" gradientUnits="userSpaceOnUse">
<stop stop-color="#196EEF"/>
<stop offset="0.5" stop-color="#186DEE"/>
<stop offset="1" stop-color="#1065E7"/>
</linearGradient>
<linearGradient id="paint1_linear" x1="45.1938" y1="11.0347" x2="45.1938" y2="32.1968" gradientUnits="userSpaceOnUse">
<stop stop-color="#DE5744"/>
<stop offset="0.5" stop-color="#DB4632"/>
<stop offset="1" stop-color="#D13D29"/>
</linearGradient>
<linearGradient id="paint2_linear" x1="91.1298" y1="11.0348" x2="91.1298" y2="45.013" gradientUnits="userSpaceOnUse">
<stop stop-color="#1A6FEF"/>
<stop offset="0.25" stop-color="#1E72EF"/>
<stop offset="0.5" stop-color="#166BEC"/>
<stop offset="0.75" stop-color="#1267E9"/>
<stop offset="1" stop-color="#1063E5" stop-opacity="0.87"/>
</linearGradient>
<linearGradient id="paint3_linear" x1="107.511" y1="0.502233" x2="107.511" y2="31.6021" gradientUnits="userSpaceOnUse">
<stop stop-color="#0AA561"/>
<stop offset="0.5" stop-color="#009B58"/>
<stop offset="1" stop-color="#00914B"/>
</linearGradient>
<linearGradient id="paint4_linear" x1="122.624" y1="11.0347" x2="122.624" y2="32.1385" gradientUnits="userSpaceOnUse">
<stop stop-color="#DE5644"/>
<stop offset="0.5" stop-color="#DA4531"/>
<stop offset="1" stop-color="#CE3A28"/>
</linearGradient>
<linearGradient id="paint5_linear" x1="69.42" y1="11.0807" x2="69.42" y2="32.1549" gradientUnits="userSpaceOnUse">
<stop stop-color="#FFC01A"/>
<stop offset="0.5" stop-color="#FFBA03"/>
<stop offset="1" stop-color="#FFB300"/>
</linearGradient>
</defs>
</svg>
