<svg width="98" height="98" viewBox="0 0 98 98" fill="none" xmlns="http://www.w3.org/2000/svg">
<g clip-path="url(#clip0)">
<path d="M48.875 0C21.882 0 0 21.882 0 48.875C0 75.868 21.882 97.75 48.875 97.75C75.868 97.75 97.75 75.868 97.75 48.875C97.75 21.882 75.868 0 48.875 0ZM67.521 24.89L60.761 24.893C55.46 24.893 54.435 27.412 54.435 31.108V39.258H67.076L67.07 52.023H54.436V84.781H41.251V52.023H30.229V39.258H41.251V29.844C41.251 18.919 47.926 12.969 57.671 12.969L67.522 12.984V24.89H67.521Z" fill="white"/>
</g>
<defs>
<clipPath id="clip0">
<rect width="97.75" height="97.75" fill="white"/>
</clipPath>
</defs>
</svg>
