<svg width="132" height="45" viewBox="0 0 132 45" fill="none" xmlns="http://www.w3.org/2000/svg">
<path d="M15.8396 0.00195349H5.57245C5.23255 0.00167922 4.90375 0.156715 4.64529 0.439126C4.38683 0.721537 4.21571 1.11275 4.16276 1.54229L0.0102592 35.2241C-0.00883112 35.3804 -0.00121588 35.5401 0.0325768 35.6923C0.0663695 35.8445 0.125538 35.9855 0.206009 36.1056C0.286481 36.2257 0.386344 36.322 0.498721 36.388C0.611099 36.454 0.733319 36.4881 0.856972 36.4879H5.7586C6.09872 36.4881 6.4277 36.3328 6.68619 36.05C6.94468 35.7672 7.11567 35.3755 7.16829 34.9456L8.28824 25.8611C8.34083 25.4315 8.51159 25.0401 8.76977 24.7574C9.02795 24.4746 9.35656 24.3191 9.69642 24.3189H12.9467C19.7099 24.3189 23.6132 20.1319 24.6325 11.8349C25.0919 8.2049 24.652 5.35278 23.3234 3.35535C21.8642 1.162 19.276 0.00195349 15.8396 0.00195349ZM17.0241 12.3035C16.4626 17.0167 13.6478 17.0167 10.926 17.0167H9.37665L10.4636 8.2145C10.4954 7.95698 10.598 7.72244 10.7529 7.55309C10.9079 7.38374 11.105 7.29069 11.3088 7.29068H12.0189C13.8729 7.29068 15.6219 7.29068 16.5257 8.6428C17.0646 9.44945 17.2298 10.6479 17.0241 12.3035ZM46.53 12.1518H41.6133C41.4095 12.1518 41.2124 12.2448 41.0575 12.4142C40.9025 12.5835 40.7999 12.8181 40.7681 13.0756L40.5504 14.8349L40.2066 14.1972C39.1422 12.2209 36.7687 11.5602 34.3997 11.5602C28.9667 11.5602 24.3263 16.8246 23.4225 24.2094C22.9526 27.8931 23.6207 31.4155 25.254 33.872C26.7523 36.1306 28.8961 37.0717 31.4468 37.0717C35.8244 37.0717 38.252 33.4706 38.252 33.4706L38.0328 35.2183C38.0133 35.3746 38.0205 35.5344 38.0539 35.6868C38.0873 35.8392 38.1461 35.9805 38.2263 36.1009C38.3065 36.2214 38.4061 36.3182 38.5184 36.3847C38.6306 36.4512 38.7528 36.4857 38.8765 36.4859H43.3052C43.6454 36.4861 43.9744 36.3308 44.2328 36.048C44.4913 35.7652 44.6623 35.3736 44.7149 34.9437L47.3722 13.4155C47.3917 13.2596 47.3846 13.1001 47.3513 12.9481C47.3179 12.796 47.2592 12.6551 47.1791 12.5349C47.099 12.4147 46.9995 12.3182 46.8875 12.2521C46.7754 12.1859 46.6534 12.1517 46.53 12.1518ZM39.6767 24.3938C39.2023 27.9872 36.9729 30.3995 34.1295 30.3995C32.7018 30.3995 31.5609 29.8137 30.8282 28.7036C30.1016 27.6012 29.8254 26.032 30.0566 24.2843C30.4995 20.7215 32.7664 18.2305 35.5662 18.2305C36.9624 18.2305 38.0974 18.824 38.845 19.9437C39.5941 21.0749 39.8914 22.6537 39.6767 24.3938ZM72.715 12.1518H67.7744C67.5414 12.1522 67.312 12.2254 67.1061 12.365C66.9002 12.5046 66.724 12.7063 66.5929 12.9527L59.7786 25.7939L56.8902 13.4539C56.8015 13.0776 56.6205 12.7477 56.3739 12.5132C56.1274 12.2787 55.8283 12.1519 55.521 12.1518H50.6659C50.5297 12.1513 50.3953 12.1925 50.2739 12.2719C50.1526 12.3513 50.0479 12.4666 49.9684 12.6083C49.889 12.75 49.8371 12.9138 49.8172 13.0863C49.7972 13.2588 49.8098 13.4349 49.8538 13.5999L55.2959 34.0314L50.1795 43.2715C50.0886 43.4353 50.0347 43.628 50.0237 43.8284C50.0126 44.0288 50.0449 44.2293 50.117 44.4078C50.1891 44.5863 50.2982 44.736 50.4324 44.8404C50.5665 44.9449 50.7206 45.0001 50.8776 45H55.8123C56.0427 45.0004 56.2697 44.9293 56.4739 44.7929C56.6781 44.6564 56.8534 44.4586 56.9848 44.2164L73.4176 13.8707C73.5067 13.7065 73.5589 13.5143 73.5687 13.3148C73.5784 13.1154 73.5453 12.9163 73.4729 12.7392C73.4006 12.5621 73.2917 12.4138 73.1581 12.3102C73.0245 12.2066 72.8713 12.1519 72.715 12.1518Z" fill="#E0E0E0"/>
<path d="M89.0728 0.00192047H78.8041C78.4645 0.00210378 78.136 0.157346 77.8779 0.439716C77.6197 0.722087 77.4488 1.11305 77.3959 1.54225L73.2434 35.2241C73.2241 35.3801 73.2315 35.5396 73.265 35.6917C73.2985 35.8437 73.3574 35.9846 73.4376 36.1047C73.5178 36.2249 73.6174 36.3213 73.7295 36.3874C73.8416 36.4536 73.9637 36.4878 74.0871 36.4878H79.3566C79.5943 36.4874 79.8241 36.3784 80.0046 36.1806C80.1852 35.9827 80.3046 35.7089 80.3414 35.4084L81.5199 25.8611C81.5725 25.4315 81.7433 25.0401 82.0014 24.7573C82.2596 24.4746 82.5882 24.3191 82.9281 24.3188H86.1768C92.9415 24.3188 96.8433 20.1319 97.8642 11.8348C98.3251 8.20486 97.8822 5.35275 96.5536 3.35531C95.0958 1.16197 92.5092 0.00192047 89.0728 0.00192047ZM90.2573 12.3035C89.6973 17.0166 86.8824 17.0166 84.1591 17.0166H82.6113L83.6997 8.21447C83.7309 7.95694 83.8332 7.72221 83.9879 7.55276C84.1427 7.38331 84.3397 7.29033 84.5434 7.29065H85.2535C87.1061 7.29065 88.8566 7.29065 89.7603 8.64276C90.2993 9.44942 90.4629 10.6479 90.2573 12.3035ZM119.762 12.1517H114.848C114.644 12.151 114.447 12.2438 114.292 12.4134C114.137 12.5829 114.035 12.8178 114.004 13.0755L113.787 14.8348L113.441 14.1972C112.377 12.2209 110.005 11.5602 107.636 11.5602C102.203 11.5602 97.5639 16.8246 96.6602 24.2093C96.1918 27.8931 96.8568 31.4155 98.4902 33.872C99.9915 36.1306 102.132 37.0717 104.683 37.0717C109.061 37.0717 111.488 33.4705 111.488 33.4705L111.269 35.2183C111.249 35.3749 111.257 35.535 111.29 35.6877C111.324 35.8403 111.383 35.9818 111.463 36.1024C111.544 36.2229 111.644 36.3197 111.757 36.3859C111.869 36.4521 111.992 36.4862 112.116 36.4859H116.543C116.883 36.4857 117.211 36.3301 117.47 36.0474C117.728 35.7646 117.899 35.3732 117.951 34.9437L120.61 13.4155C120.629 13.2591 120.621 13.0993 120.587 12.9471C120.553 12.795 120.494 12.654 120.413 12.534C120.332 12.4139 120.232 12.3176 120.12 12.2516C120.008 12.1856 119.885 12.1515 119.762 12.1517ZM112.908 24.3937C112.437 27.9872 110.205 30.3995 107.361 30.3995C105.936 30.3995 104.793 29.8137 104.06 28.7036C103.333 27.6011 103.06 26.032 103.288 24.2842C103.734 20.7215 105.998 18.2305 108.798 18.2305C110.194 18.2305 111.329 18.8239 112.077 19.9437C112.829 21.0749 113.126 22.6536 112.908 24.3937ZM125.558 0.925736L121.344 35.2241C121.325 35.3801 121.332 35.5396 121.366 35.6917C121.399 35.8437 121.458 35.9846 121.538 36.1047C121.618 36.2249 121.718 36.3213 121.83 36.3874C121.942 36.4536 122.064 36.4878 122.188 36.4878H126.424C127.128 36.4878 127.726 35.8348 127.834 34.9456L131.989 1.26568C132.009 1.10957 132.001 0.949953 131.968 0.79782C131.934 0.645688 131.875 0.504642 131.795 0.384378C131.715 0.264114 131.616 0.167485 131.503 0.101133C131.391 0.0347809 131.269 0.000279718 131.146 0H126.402C126.198 0.00092262 126.001 0.094588 125.847 0.264218C125.692 0.433848 125.59 0.668358 125.558 0.925736Z" fill="#E0E0E0"/>
</svg>
