<svg width="30" height="30" viewBox="0 0 30 30" fill="none" xmlns="http://www.w3.org/2000/svg">
<path fill-rule="evenodd" clip-rule="evenodd" d="M15 30C23.2843 30 30 23.2842 30 15C30 6.71582 23.2843 0 15 0C6.71573 0 0 6.71582 0 15C0 23.2842 6.71573 30 15 30ZM19.134 17.616C19.134 19.198 17.482 20.4021 14.864 20.4021C13.016 20.4021 11.588 19.772 11.588 18.386C11.588 17.728 11.994 17.168 12.708 16.762V16.6919C12.302 16.426 11.994 16.02 11.994 15.376C11.994 14.7881 12.4 14.2419 12.876 13.906V13.8501C12.33 13.458 11.826 12.7161 11.826 11.792C11.826 9.95801 13.324 8.96411 14.99 8.96411C15.424 8.96411 15.844 9.0481 16.166 9.15991H18.994V10.6721H17.664C17.86 10.938 18.014 11.3721 18.014 11.8621C18.014 13.626 16.67 14.522 14.99 14.522C14.682 14.522 14.318 14.4519 13.982 14.3401C13.772 14.522 13.646 14.6899 13.646 15.012C13.646 15.4319 13.954 15.656 14.878 15.656H16.208C18.098 15.656 19.134 16.2439 19.134 17.616ZM13.758 11.792C13.758 12.73 14.304 13.248 14.99 13.248C15.676 13.248 16.222 12.73 16.222 11.792C16.222 10.8821 15.69 10.364 14.99 10.364C14.29 10.364 13.758 10.8821 13.758 11.792ZM13.31 18.064C13.31 18.7219 14.038 19.1001 15.172 19.1001C16.348 19.1001 17.16 18.582 17.16 17.9661C17.16 17.406 16.698 17.2661 15.858 17.2661H14.906C14.43 17.2661 14.094 17.2241 13.814 17.1541C13.464 17.4341 13.31 17.7419 13.31 18.064Z" fill="white"/>
</svg>
