<svg width="133" height="46" viewBox="0 0 133 46" fill="none" xmlns="http://www.w3.org/2000/svg">
<path fill-rule="evenodd" clip-rule="evenodd" d="M36.7683 12.4976C36.1228 12.613 33.4339 13.6966 32.5308 14.0443C31.5635 14.5074 22.7229 26.7872 22.1423 29.8058C22.0132 30.8488 21.949 32.4552 21.949 33.9638L21.8848 36.4C21.8848 38.1421 22.1529 40.945 22.282 42.4536C22.8626 42.6871 27.0691 42.4828 27.8431 42.7138L27.7472 45.8313C26.9915 45.7349 21.6498 45.7564 18.5983 45.7564C17.0496 45.7564 12.0698 46.0635 10.5402 45.9798L10.8288 43.0132C11.6677 42.8965 15.1418 43.2835 15.9052 41.8332C16.2841 41.115 16.1627 40.3436 16.1627 36.1678V34.1947C16.1627 33.266 16.1627 31.5251 16.0343 29.8997C15.7112 28.1601 7.92474 10.6755 5.9245 7.89041C5.34384 7.54275 1.70461 6.88802 0.800797 6.54036L0.756348 3.86945C1.20719 3.46469 5.25423 3.96968 9.18203 3.7083C11.7629 3.53701 17.6522 3.7083 18.3796 3.86437L18.1933 6.22061C17.4193 6.56827 13.6898 6.69642 12.7225 7.16082C15.2385 13.8895 19.2178 22.5544 20.5089 25.9206C21.218 24.0643 27.4565 16.3459 27.6498 13.6776C26.6818 13.3299 23.4765 12.4976 22.9607 12.4976L22.6538 9.45997C23.5329 9.21254 28.1522 9.45997 30.448 9.45997C32.4306 9.45997 36.6653 9.45997 37.8697 9.6376L36.7683 12.4976Z" fill="#E0E0E0"/>
<path fill-rule="evenodd" clip-rule="evenodd" d="M50.1033 44.5344C49.8189 44.4621 46.5861 44.4621 45.4064 44.4621C44.7157 44.4621 41.1929 44.4253 40.5826 44.4253L40.766 41.7087C41.5795 41.6338 43.0936 41.0451 43.7843 40.8979C43.337 39.0695 41.861 33.262 41.5358 32.167C40.682 32.167 37.6101 32.3408 36.7557 32.6327C36.5934 33.1428 35.4271 35.1995 35.2239 37.9808C35.7933 38.1991 36.8855 38.6229 37.5367 38.7688L37.2968 41.545C36.6054 41.4727 33.8474 41.6199 33.1969 41.545C32.5866 41.545 29.7531 41.5577 29.2246 41.7036L29.7277 38.7701C30.3782 38.6241 31.8775 37.7867 32.4469 37.5659C33.3006 35.3721 37.2566 21.4669 37.5819 20.1511C37.0527 19.9316 36.1538 19.1677 35.5844 19.0205L35.5061 17.012C36.1976 17.0856 39.635 17.2708 40.0005 17.2378C40.8182 17.1655 43.8535 17.1934 44.5449 17.1198L44.2888 19.0929C43.6792 19.1665 42.6865 19.7006 42.1171 19.9189C42.4015 21.4554 43.5346 26.4077 44.3883 30.0633C45.0388 32.6974 46.119 37.8578 47.1357 40.856C47.8271 41.0768 49.4139 41.9142 50.1456 41.9866L50.1858 42.7174L50.1033 44.5344ZM39.4664 21.2702L39.4255 20.8096C38.6931 23.8815 37.4506 28.7094 37.2058 29.878L41.2119 29.8755C40.6086 27.0213 40.0267 24.1526 39.4664 21.2702Z" fill="#E0E0E0"/>
<path fill-rule="evenodd" clip-rule="evenodd" d="M73.9252 37.0077C73.3657 36.9303 70.6663 36.9379 69.2855 37.0077C68.1792 37.0648 65.5503 36.8262 64.298 36.9265L64.2013 34.168C64.6331 34.0906 67.3255 33.762 67.8441 33.6059C68.0162 32.1315 67.9337 30.0392 67.9337 28.2577L67.8674 25.0108C66.4859 25.0108 57.3596 25.8634 56.9716 25.9421L56.3048 26.0956C56.3048 30.5188 56.4339 31.9171 56.6068 33.5476C57.3406 33.7785 59.973 34.0906 60.5332 34.2441L60.4993 37.25C59.8523 37.1726 55.8032 37.25 54.5522 37.25C53.0417 37.25 49.3693 37.1929 48.5071 37.2703L48.6235 34.168C49.3142 34.0906 51.9241 33.6275 52.4857 33.4714C52.5718 31.454 52.6155 28.2717 52.6155 24.9359V20.8223C52.6155 19.4253 52.5718 15.3904 52.5287 13.9934C51.9678 13.8386 49.3573 13.5252 48.5805 13.4478L48.4429 11.0992C48.96 11.1779 52.5633 10.999 54.4619 10.999C56.2314 10.999 60.2425 11.0624 60.7173 10.9837L60.5762 13.4478C59.7564 13.5252 57.0379 13.9135 56.5631 14.0683C56.4332 15.2331 56.3041 16.2418 56.3041 19.9659L56.2399 21.9085C57.0167 21.9085 66.644 21.8399 67.8427 21.5329V18.8594C67.8427 15.445 68.1376 11.7539 67.921 10.7439C67.4469 10.5117 64.8737 9.86081 64.0539 9.78214L64.1689 7.30409C64.686 7.38276 67.111 7.35612 68.9229 7.43352C70.8215 7.43352 73.5809 7.57436 74.1425 7.41956L74.0141 9.45859C73.4532 9.53726 70.9506 10.6741 70.9506 10.6741C70.9506 10.6741 70.7799 12.8007 70.9055 15.8599C71.0085 18.4001 71.0402 23.3943 71.0402 23.3943C71.1122 28.9581 71.3034 33.4536 71.1298 33.6858C70.9231 33.9663 73.1117 34.2035 73.715 34.3596L73.952 35.0981L73.9252 37.0077ZM96.1832 24.0452C96.3885 33.5222 91.5767 38.2258 85.3255 38.2258C82.7234 38.2258 79.5569 37.3338 76.8547 34.4167C74.7451 32.1417 74.3965 29.1878 74.3965 25.4955C74.3965 17.8647 79.0172 11.5382 86.0889 11.6194C88.7813 11.6194 91.3763 12.3566 93.4739 15.2991C95.345 17.923 95.6611 19.2274 96.0026 22.1001L96.1832 24.0452ZM92.7147 24.6936C92.8707 16.8496 89.4572 14.7611 85.1449 15.294C82.8878 15.5719 78.2961 17.7187 78.2961 24.6936C78.2961 31.5859 81.8182 35.3176 86.5186 34.5817C90.155 34.0119 92.0649 31.6049 92.5334 28.2577L92.7147 24.6936ZM127.728 29.7068L124.934 29.2183C125.226 26.678 124.972 7.17214 124.949 5.09124L124.806 0.994141C125.584 1.27075 125.466 1.1261 128.75 1.74657C130.75 2.12468 131.01 2.28455 131.667 2.3315L130.809 7.1899C130.076 11.0776 127.952 28.4087 127.728 29.7068ZM125.799 40.0098L124.302 39.7763L124.287 33.9447L126.183 34.371L127.88 34.5119L127.41 40.2217L125.799 40.0098ZM122.388 20.193C122.757 29.0673 117.062 36.4405 109.925 36.4405C106.956 36.4405 104.428 35.7934 101.5 32.3092C99.0915 29.4441 97.9407 26.961 97.6402 22.0721C97.1068 13.4123 102.916 6.13676 110.989 6.23066C114.062 6.23066 117.025 7.0719 119.42 10.4318C121.556 13.4275 121.931 16.271 122.319 19.551L122.388 20.193ZM118.666 21.4517C118.962 12.9289 114.396 9.82401 109.474 10.4318C106.899 10.749 102.085 13.4884 102.085 21.4517C102.085 29.321 106.113 33.2887 111.479 32.4462C115.631 31.7965 117.359 28.9861 118.306 25.1795C118.306 25.1795 118.576 24.0452 118.666 21.4517ZM131.173 34.5652C132.033 34.5652 132.756 35.7896 132.756 37.4124C132.757 37.7867 132.717 38.1577 132.638 38.5038C132.558 38.85 132.442 39.1644 132.295 39.429C132.147 39.6936 131.972 39.903 131.78 40.0451C131.587 40.1873 131.381 40.2594 131.173 40.2572C130.965 40.26 130.758 40.1884 130.565 40.0465C130.373 39.9046 130.198 39.6952 130.05 39.4305C129.903 39.1658 129.786 38.8511 129.707 38.5047C129.628 38.1582 129.588 37.7869 129.59 37.4124C129.588 37.0377 129.628 36.6662 129.707 36.3194C129.786 35.9727 129.902 35.6577 130.05 35.3927C130.197 35.1277 130.372 34.9181 130.565 34.776C130.758 34.634 130.965 34.5623 131.173 34.5652ZM131.173 39.8461C131.896 39.8461 132.475 38.7904 132.475 37.4124C132.475 36.0345 131.897 34.9788 131.173 34.9788C130.445 34.9788 129.87 36.0345 129.87 37.4124C129.87 38.7904 130.445 39.8461 131.173 39.8461ZM130.568 35.7414H131.266C131.704 35.7414 131.912 36.056 131.912 36.6905C131.912 37.2957 131.7 37.5482 131.423 37.6028L131.955 39.0721H131.653L131.152 37.6396H130.848V39.0721H130.568V35.7414ZM130.849 37.2285H131.138C131.389 37.2285 131.633 37.2031 131.633 36.6689C131.633 36.2108 131.411 36.1563 131.219 36.1563H130.849V37.2285Z" fill="#E0E0E0"/>
</svg>
